<svg version="1.1" viewBox="0.0 0.0 359.56430446194224 355.21259842519686" fill="none" stroke="none" stroke-linecap="square" stroke-miterlimit="10" xmlns:xlink="http://www.w3.org/1999/xlink" xmlns="http://www.w3.org/2000/svg"><clipPath id="p.0"><path d="m0 0l359.5643 0l0 355.2126l-359.5643 0l0 -355.2126z" clip-rule="nonzero"/></clipPath><g clip-path="url(#p.0)"><path fill="#000000" fill-opacity="0.0" d="m0 0l359.5643 0l0 355.2126l-359.5643 0z" fill-rule="evenodd"/><defs><radialGradient id="p.1" gradientUnits="userSpaceOnUse" gradientTransform="matrix(15.508954238805558 0.0 0.0 15.508954238805558 0.0 0.0)" spreadMethod="pad" cx="11.592151828079496" cy="11.451855262310518" fx="11.592151828079496" fy="11.451855262310518" r="15.508954048156738"><stop offset="0.0" stop-color="#696969"/><stop offset="1.0" stop-color="#1d1d1d"/></radialGradient></defs><path fill="url(#p.1)" d="m9.703412 177.6063l0 0c0 -93.931885 76.14684 -170.07874 170.07874 -170.07874l0 0c45.10768 0 88.367874 17.918959 120.26384 49.81491c31.895935 31.89595 49.81491 75.15614 49.81491 120.263824l0 0c0 93.931915 -76.14685 170.07874 -170.07875 170.07874l0 0c-93.93189 0 -170.07874 -76.14682 -170.07874 -170.07874z" fill-rule="evenodd"/><path stroke="#000000" stroke-width="1.0" stroke-linejoin="round" stroke-linecap="butt" d="m9.703412 177.6063l0 0c0 -93.931885 76.14684 -170.07874 170.07874 -170.07874l0 0c45.10768 0 88.367874 17.918959 120.26384 49.81491c31.895935 31.89595 49.81491 75.15614 49.81491 120.263824l0 0c0 93.931915 -76.14685 170.07874 -170.07875 170.07874l0 0c-93.93189 0 -170.07874 -76.14682 -170.07874 -170.07874z" fill-rule="evenodd"/><path fill="#000000" fill-opacity="0.0" d="m193.37358 67.08043l-30.410019 15.205017l0 38.587173l30.410019 15.205017l30.410019 -15.205017l0 -38.587173z" fill-rule="evenodd"/><path stroke="#16c9ab" stroke-width="4.0" stroke-linejoin="round" stroke-linecap="butt" d="m193.37358 67.08043l-30.410019 15.205017l0 38.587173l30.410019 15.205017l30.410019 -15.205017l0 -38.587173z" fill-rule="evenodd"/><path fill="#000000" fill-opacity="0.0" d="m260.6154 115.51681l-20.09195 10.045982l0 20.149414l20.09195 10.04599l20.09198 -10.04599l0 -20.149414z" fill-rule="evenodd"/><path stroke="#16c9ab" stroke-width="4.0" stroke-linejoin="round" stroke-linecap="butt" d="m260.6154 115.51681l-20.09195 10.045982l0 20.149414l20.09195 10.04599l20.09198 -10.04599l0 -20.149414z" fill-rule="evenodd"/><path fill="#000000" fill-opacity="0.0" d="m223.7836 120.87262l16.743301 4.694832" fill-rule="evenodd"/><path stroke="#16c9ab" stroke-width="4.0" stroke-linejoin="round" stroke-linecap="butt" d="m223.7836 120.87262l16.743301 4.694832" fill-rule="evenodd"/><path fill="#000000" fill-opacity="0.0" d="m153.44951 155.7512l-19.380371 9.690186l0 24.59172l19.380371 9.690186l19.380371 -9.690186l0 -24.59172z" fill-rule="evenodd"/><path stroke="#16c9ab" stroke-width="4.0" stroke-linejoin="round" stroke-linecap="butt" d="m153.44951 155.7512l-19.380371 9.690186l0 24.59172l19.380371 9.690186l19.380371 -9.690186l0 -24.59172z" fill-rule="evenodd"/><path fill="#000000" fill-opacity="0.0" d="m193.37358 136.07764l-39.932785 19.659592" fill-rule="evenodd"/><path stroke="#16c9ab" stroke-width="4.0" stroke-linejoin="round" stroke-linecap="butt" d="m193.37358 136.07764l-39.932785 19.659592" fill-rule="evenodd"/><path fill="#000000" fill-opacity="0.0" d="m114.68876 92.10554l-19.380371 9.690193l0 24.59172l19.380371 9.690186l19.380363 -9.690186l0 -24.59172z" fill-rule="evenodd"/><path stroke="#16c9ab" stroke-width="4.0" stroke-linejoin="round" stroke-linecap="butt" d="m114.68876 92.10554l-19.380371 9.690193l0 24.59172l19.380371 9.690186l19.380363 -9.690186l0 -24.59172z" fill-rule="evenodd"/><path fill="#000000" fill-opacity="0.0" d="m162.96356 120.87262l-28.882202 -19.072739" fill-rule="evenodd"/><path stroke="#16c9ab" stroke-width="4.0" stroke-linejoin="round" stroke-linecap="butt" d="m162.96356 120.87262l-28.882202 -19.072739" fill-rule="evenodd"/><path fill="#000000" fill-opacity="0.0" d="m51.07349 195.57742l281.5433 0l0 107.62204l-281.5433 0z" fill-rule="evenodd"/><path fill="#f3f3f3" d="m65.99537 251.7018l18.640625 0l-10.734375 -29.53125l-11.296879 31.046875l-1.625 0l12.921879 -35.515625l12.921875 35.515625l-20.828125 0l0 -1.515625zm38.908356 -13.21875l6.890625 14.734375l-1.671875 0l-7.09375 -15.203125q0.109375 -0.046875 0.890625 -0.421875q0.78125 -0.375 1.078125 -0.546875q0.3125 -0.1875 1.015625 -0.640625q0.71875 -0.46875 1.0625 -0.890625q0.359375 -0.4375 0.78125 -1.015625q0.4375 -0.578125 0.640625 -1.3125q0.203125 -0.734375 0.203125 -1.59375q0 -3.203125 -3.046875 -4.71875q-3.03125 -1.515625 -7.53125 -1.515625l-4.0625 0l0 27.859375l-1.515625 0l0 -29.375l5.578125 0q5.96875 0 9.03125 2.078125q3.0625 2.0625 3.0625 5.671875q0 2.328125 -1.578125 4.125q-1.5625 1.796875 -3.734375 2.765625zm32.779274 -14.640625l0 1.515625l-10.640617 0l0 27.859375l-1.515625 0l0 -27.859375l-10.640625 0l0 -1.515625l22.796867 0zm4.759094 4.75q0.5625 -0.75 1.34375 -3.125q0.78125 -2.390625 0.78125 -4.765625l-1.46875 0l0 -2.9375l3.34375 0q0 7.640625 -2.734375 11.640625l-1.265625 -0.8125zm20.007553 -5.359375q6.28125 0 8.921875 2.78125l-1.015625 1.109375q-2.4375 -2.375 -7.703125 -2.375q-7.90625 0 -7.90625 6.28125q0 2.4375 1.921875 3.875q1.9375 1.4375 4.6875 2.203125q2.765625 0.765625 5.515625 1.609375q2.765625 0.828125 4.6875 2.671875q1.9375 1.84375 1.9375 4.84375q0 3.484375 -2.890625 5.5625q-2.890625 2.078125 -8.359375 2.078125q-2.6875 0 -5.296875 -0.703125q-2.609375 -0.71875 -3.875 -2.078125l1.015625 -1.109375q2.578125 2.375 7.953125 2.375q4.921875 0 7.421875 -1.828125q2.515625 -1.828125 2.515625 -4.25q0 -2.53125 -1.9375 -4.09375q-1.921875 -1.578125 -4.6875 -2.359375q-2.75 -0.796875 -5.515625 -1.625q-2.765625 -0.84375 -4.6875 -2.609375q-1.921875 -1.78125 -1.921875 -4.65625q0 -3.90625 2.609375 -5.796875q2.609375 -1.90625 6.609375 -1.90625zm41.695435 29.984375l-8.109375 0l0 -35.453125l6.171875 0q6.6875 0 10.078125 2.453125q3.40625 2.453125 3.40625 6.90625q0 5.078125 -4.25 7.453125q6.171875 2.328125 6.171875 8.765625q0 4.5625 -3.34375 7.21875q-3.34375 2.65625 -10.125 2.65625zm0 -1.515625q2.375 0 4.34375 -0.375q1.984375 -0.390625 3.78125 -1.265625q1.796875 -0.890625 2.8125 -2.609375q1.015625 -1.734375 1.015625 -4.109375q0 -5.421875 -5.21875 -7.34375l-3.046875 -1.125l2.84375 -1.609375q3.5 -1.9375 3.5 -6.140625q0 -7.84375 -11.96875 -7.84375l-4.65625 0l0 32.421875l6.59375 0zm37.939377 0l0 1.515625l-16.921875 0l0 -29.375l1.515625 0l0 27.859375l15.40625 0zm20.60408 -26.3125q-1.71875 -0.546875 -4.25 -0.546875q-2.5312653 0 -4.2500153 0.546875q-1.71875 0.53125 -3.171875 1.96875q-1.4375 1.4375 -2.15625 4.203125q-0.703125 2.765625 -0.703125 6.96875q0 4.203125 0.703125 6.96875q0.71875 2.75 2.15625 4.203125q1.453125 1.4375 3.171875 1.96875q1.71875 0.53125 4.2500153 0.53125q2.53125 0 4.25 -0.53125q1.734375 -0.53125 3.171875 -1.96875q1.453125 -1.453125 2.15625 -4.203125q0.703125 -2.765625 0.703125 -6.96875q0 -4.203125 -0.703125 -6.96875q-0.703125 -2.765625 -2.15625 -4.203125q-1.4375 -1.4375 -3.171875 -1.96875zm4.828125 24.734375q-2.734375 3.59375 -9.078125 3.59375q-6.3281403 0 -9.062515 -3.59375q-2.734375 -3.59375 -2.734375 -11.59375q0 -8.0 2.734375 -11.59375q2.734375 -3.609375 9.062515 -3.609375q6.34375 0 9.078125 3.609375q2.734375 3.59375 2.734375 11.59375q0 8.0 -2.734375 11.59375zm22.885223 -16.65625l6.75 -5.625q-2.234375 -3.0 -8.015625 -3.0q-2.53125 0 -4.25 0.546875q-1.71875 0.53125 -3.171875 1.96875q-1.4375 1.4375 -2.15625 4.203125q-0.703125 2.765625 -0.703125 6.96875q0 4.203125 0.703125 6.96875q0.71875 2.75 2.15625 4.203125q1.453125 1.4375 3.171875 1.96875q1.71875 0.53125 4.25 0.53125q5.734375 0 7.953125 -2.9375l0 -8.96875l1.53125 0l0 13.375q0 9.67189 -8.875 9.67189l-5.921875 0l0 -1.515625l5.921875 0q3.796875 0 5.5625 -2.0q1.78125 -2.0 1.78125 -7.6250153l0 -0.75q-2.734375 2.265625 -7.953125 2.265625q-6.328125 0 -9.0625 -3.59375q-2.734375 -3.59375 -2.734375 -11.59375q0 -8.0 2.734375 -11.59375q2.734375 -3.609375 9.0625 -3.609375q7.34375 0 9.984375 4.8125l-6.328125 5.328125l-2.390625 0z" fill-rule="nonzero"/><path fill="#000000" fill-opacity="0.0" d="m181.76659 106.917984l0 0c0 -5.5576324 4.5124054 -10.062988 10.078751 -10.062988l0 0c2.6730347 0 5.236603 1.0602036 7.1267395 2.94738c1.8901367 1.8871765 2.9519958 4.446739 2.9519958 7.115608l0 0c0 5.55764 -4.5124054 10.062996 -10.078735 10.062996l0 0c-5.566345 0 -10.078751 -4.505356 -10.078751 -10.062996z" fill-rule="evenodd"/><path stroke="#16c9ab" stroke-width="4.0" stroke-linejoin="round" stroke-linecap="butt" d="m181.76659 106.917984l0 0c0 -5.5576324 4.5124054 -10.062988 10.078751 -10.062988l0 0c2.6730347 0 5.236603 1.0602036 7.1267395 2.94738c1.8901367 1.8871765 2.9519958 4.446739 2.9519958 7.115608l0 0c0 5.55764 -4.5124054 10.062996 -10.078735 10.062996l0 0c-5.566345 0 -10.078751 -4.505356 -10.078751 -10.062996z" fill-rule="evenodd"/><path fill="#000000" fill-opacity="0.0" d="m175.97794 127.385826c1.2061768 -3.6218414 4.1936035 -6.8537445 7.6089325 -8.5590515" fill-rule="evenodd"/><path stroke="#16c9ab" stroke-width="4.0" stroke-linejoin="round" stroke-linecap="butt" d="m175.97794 127.385826c1.2061768 -3.6218414 4.1936035 -6.8537445 7.6089325 -8.5590515" fill-rule="evenodd"/><path fill="#000000" fill-opacity="0.0" d="m207.58687 127.385826c-1.2061768 -3.6218414 -4.1935883 -6.8537445 -7.6089325 -8.5590515" fill-rule="evenodd"/><path stroke="#16c9ab" stroke-width="4.0" stroke-linejoin="round" stroke-linecap="butt" d="m207.58687 127.385826c-1.2061768 -3.6218414 -4.1935883 -6.8537445 -7.6089325 -8.5590515" fill-rule="evenodd"/></g></svg>